<?xml version="1.0" encoding="UTF-8"?>
<!DOCTYPE svg  PUBLIC '-//W3C//DTD SVG 1.1//EN'  'http://www.w3.org/Graphics/SVG/1.1/DTD/svg11.dtd' [
	<!ENTITY ns_flows "http://ns.adobe.com/Flows/1.0/">
]>
<svg width="30px" height="15px" enable-background="new -0.002 0.016 30 15" version="1.1" viewBox="-.002 .016 30 15" xml:space="preserve" xmlns="http://www.w3.org/2000/svg">
<path d="m13.916 11.901c0 1.104-0.895 2.002-2 2.002h-9c-1.104 0-2-0.896-2-2.002v-9c0-1.104 0.896-2 2-2h9c1.105 0 2 0.896 2 2v9z" fill="#fff" stroke="#C0C0C0" stroke-miterlimit="10"/>
<path d="m29.13 11.901c0 1.104-0.896 2.002-2 2.002h-9c-1.104 0-2-0.896-2-2.002v-9c0-1.104 0.896-2 2-2h9c1.104 0 2 0.896 2 2v9z" fill="#fff" stroke="#C0C0C0" stroke-miterlimit="10"/>
<rect width="15" height="15" fill="none"/>
<rect x="14.996" y=".016" width="15" height="15" fill="none"/>
<path d="m10.809 4.616c-0.123-0.123-0.272-0.186-0.439-0.186-0.17 0-0.314 0.063-0.439 0.187l-2.971 2.979-1.729-1.77c-0.123-0.125-0.271-0.186-0.439-0.186-0.18 0-0.313 0.062-0.438 0.187l-0.744 0.692c-0.123 0.123-0.188 0.27-0.188 0.437 0 0.166 0.064 0.313 0.188 0.438l2.865 2.865c0.12 0.123 0.27 0.188 0.438 0.188s0.314-0.063 0.439-0.188l4.108-4.115c0.125-0.123 0.189-0.269 0.189-0.438 0-0.168-0.064-0.313-0.189-0.438l-0.651-0.652z" fill="#564E48"/>
</svg>
